<svg xmlns="http://www.w3.org/2000/svg" viewBox="0 0 481 131">
  <defs>
    <style>
      .cls-1 {
        fill: #e50914;
      }
    </style>
  </defs>
  <title>Ativo 2</title>
  <g id="Camada_2" data-name="Camada 2">
    <g id="Camada_1-2" data-name="Camada 1">
      <g id="Camada_1-2-2" data-name="Camada 1-2">
        <path class="cls-1" d="M50,0H70V122c-8,1-16,2-23,3C37,100,20,57,20,57v71c4,0-2,0-20,3V1H20L50,74Zm97,20V0H90V120l57-6V94c-12,1-24,1-37,4V70h30V50H110V20C116,21,142,21,147,20Zm13,0h20v92a133.69,133.69,0,0,0,20-1V20h20V0H160ZM286,0H230V110h20V70h27V50H250V20h36Zm34,95V0H300V112c18,1,36,2,54,4V97C343,96,331,95,320,95Zm50,22c7,1,13,1,20,2V0H370Zm84-55c9-20,17-40,26-61H458c-5,13-9,22-14,34-5-13-8-22-13-34H409c8,20,15,40,24,61-9,20-17,40-26,60l21,3c5-13,10-22,15-35,5,14,10,24,15,38,7,1,16,2,23,3C471,107,462,83,454,62Z"/>
      </g>
    </g>
  </g>
</svg>
